<?xml version="1.0" encoding="UTF-8"?>
<svg width="194px" height="137px" viewBox="0 0 194 137" version="1.1" xmlns="http://www.w3.org/2000/svg" xmlns:xlink="http://www.w3.org/1999/xlink">
    <!-- Generator: Sketch 55.2 (78181) - https://sketchapp.com -->
    <title>Logo Modificado</title>
    <desc>Created with Sketch.</desc>
    <defs>
        <radialGradient cx="50%" cy="50%" fx="50%" fy="50%" r="48.0017294%" id="radialGradient-1">
            <stop stop-color="#7B7979" offset="0%"></stop>
            <stop stop-color="#FFFFFF" offset="100%"></stop>
        </radialGradient>
    </defs>
    <g id="Logo-Modificado" stroke="none" stroke-width="1" fill="none" fill-rule="evenodd">
        <g id="Logo-white" transform="translate(-1.000000, -22.000000)">
            <g id="Dish">
                <circle id="Oval" stroke="#D1D1D1" stroke-width="0.5" fill="url(#radialGradient-1)" cx="97.5" cy="85.5" r="56.25"></circle>
                <circle id="Oval" fill="#F4F4F4" cx="98" cy="87" r="39"></circle>
                <path d="M16.8258598,120.14618 C14.8250737,118.482 42.4268758,95.5836961 101.491082,64.9284822 C123.191692,53.6655383 158.880505,39.3377896 169.305375,36.7808822 C174.434681,35.5228175 171.371521,37.5919858 171.983148,40.6936114 C172.133008,41.4535704 176.582,42.1046941 176.69902,42.9820304 C176.908675,44.5538678 175.796084,45.320986 176.080053,46.6799612 C176.305439,47.758579 179.28462,47.9151044 178.631,48.738021 C175.487837,52.6953088 133.714881,77.3704287 113.572245,91.149512 C68.0258026,122.306716 38.822477,140.83022 33.8901986,142.260113 C28.5154009,143.818293 40.7943316,132.490537 41.3237985,130.852326 C41.5562227,130.133188 29.7582771,136.435314 30.8299691,135.249325 C32.1636053,133.773456 39.5749406,128.550371 39.3371694,128.099042 C38.7782063,127.038037 28.9328785,134.573387 27.7031992,133.685502 C27.2879506,133.385674 37.485594,124.180572 36.4084217,124.040068 C35.7442583,123.953436 28.3190619,127.847178 27.6915856,127.616474 C26.2852302,127.0994 35.4344278,121.087174 34.224004,121.012666 C33.2939811,120.955419 22.4743419,128.024904 22.8364896,126.940692 C23.2082033,125.827841 31.7668378,118.265539 31.8654269,117.743896 C32.2380138,115.772508 22.2261646,124.120467 22.5228982,123.736491 C22.5228982,123.736491 27.5379879,118.214185 26.4012155,118.181148 C25.751556,118.162268 22.0909575,120.945885 21.0097491,121.639406 C18.0366457,123.54645 23.3720699,118.391603 22.8684511,118.314672 C22.2612693,118.221921 19.0139637,121.408077 18.5917547,121.057881 C18.1958374,120.729492 22.4782192,117.247068 21.8600347,116.9171 C21.4167955,116.680512 17.2799246,120.523854 16.8258598,120.14618 Z" id="Path-6" fill="#FFD080" transform="translate(97.724509, 89.406859) rotate(34.000000) translate(-97.724509, -89.406859) "></path>
                <ellipse id="Oval" fill="#FFFFFF" cx="70.8438835" cy="120.80398" rx="1.80253623" ry="1.80397972"></ellipse>
                <path d="M70.4833763,127.768878 C72.0761975,127.768878 73.3674343,127.810016 73.3674343,126.215919 C73.3674343,124.621822 72.0761975,123.990851 70.4833763,123.990851 C68.8905551,123.990851 67,125.122084 67,126.716181 C67,128.310277 68.8905551,127.768878 70.4833763,127.768878 Z" id="Oval" fill="#FFFFFF"></path>
                <path d="M74.8094633,124.772735 C75.6058739,124.772735 75.8808304,124.1266 75.8808304,123.329551 C75.8808304,122.532503 75.6058739,121.886368 74.8094633,121.886368 C74.0130526,121.886368 73.3674343,122.532503 73.3674343,123.329551 C73.3674343,124.1266 74.0130526,124.772735 74.8094633,124.772735 Z" id="Oval" fill="#FFFFFF"></path>
                <path d="M126.802536,54.1050925 C127.79805,54.1050925 128.605072,53.8002902 128.605072,52.8039797 C128.605072,51.8076692 127.79805,51 126.802536,51 C125.807023,51 125,51.8076692 125,52.8039797 C125,53.8002902 125.807023,54.1050925 126.802536,54.1050925 Z" id="Oval" fill="#FFFFFF"></path>
                <path d="M133.523551,54.3295513 C134.917269,54.3295513 135.356526,53.3603483 135.356526,52.1647757 C135.356526,50.9692031 134.917269,50 133.523551,50 C132.129832,50 131,50.9692031 131,52.1647757 C131,53.3603483 132.129832,54.3295513 133.523551,54.3295513 Z" id="Oval" fill="#FFFFFF"></path>
            </g>
            <text id="My-Recipes" fill="#000000" font-family="Debby" font-size="45" font-weight="normal" line-spacing="61">
                <tspan x="29.985" y="96">My Recipes</tspan>
            </text>
        </g>
    </g>
</svg>