<?xml version="1.0" encoding="UTF-8"?>
<svg width="1415px" height="982px" viewBox="0 0 1415 982" version="1.1" xmlns="http://www.w3.org/2000/svg" xmlns:xlink="http://www.w3.org/1999/xlink">
    <!-- Generator: Sketch 55.2 (78181) - https://sketchapp.com -->
    <title>Design</title>
    <desc>Created with Sketch.</desc>
    <defs>
        <linearGradient x1="-3.01778538%" y1="26.9995709%" x2="50%" y2="54.6644698%" id="linearGradient-1">
            <stop stop-color="#FD9704" offset="0%"></stop>
            <stop stop-color="#F95E02" offset="100%"></stop>
        </linearGradient>
        <linearGradient x1="42.7916188%" y1="73.0687656%" x2="62.4815979%" y2="50%" id="linearGradient-2">
            <stop stop-color="#FD9705" offset="0%"></stop>
            <stop stop-color="#F95E02" offset="100%"></stop>
        </linearGradient>
        <linearGradient x1="74.1699206%" y1="85.1980947%" x2="60.1742378%" y2="47.9635245%" id="linearGradient-3">
            <stop stop-color="#FD9704" offset="0%"></stop>
            <stop stop-color="#F95E02" offset="100%"></stop>
        </linearGradient>
        <linearGradient x1="13.3326972%" y1="58.0069148%" x2="60.5394765%" y2="76.7935408%" id="linearGradient-4">
            <stop stop-color="#FD9705" offset="0%"></stop>
            <stop stop-color="#F95E02" offset="100%"></stop>
        </linearGradient>
        <linearGradient x1="21.1749496%" y1="89.5141213%" x2="56.3330225%" y2="50.8359676%" id="linearGradient-5">
            <stop stop-color="#FD9704" offset="0%"></stop>
            <stop stop-color="#FA6302" offset="99.9588848%"></stop>
            <stop stop-color="#F95E02" offset="100%"></stop>
        </linearGradient>
        <linearGradient x1="55.3673315%" y1="14.3844125%" x2="62.2163102%" y2="50%" id="linearGradient-6">
            <stop stop-color="#FD9704" offset="0%"></stop>
            <stop stop-color="#F95E02" offset="100%"></stop>
        </linearGradient>
    </defs>
    <g id="Page-1" stroke="none" stroke-width="1" fill="none" fill-rule="evenodd">
        <g id="Desktop-HD">
            <g id="Design">
                <g id="1">
                    <path d="M666,0 C524.314638,41.7745827 476.761824,101.740036 523.341558,179.896359 C576.173222,268.54282 715.636854,370.031495 623.065716,496.068453 C530.494578,622.105411 319.838179,500.162315 209.164402,438.763385 C135.381884,397.830766 65.6604166,374.920136 0,370.031495 L0,0 L666,0 Z" id="Path" fill="#FB833C"></path>
                    <path d="M620,0 C488.100714,38.817761 443.832329,94.5388353 487.194844,167.163223 C536.377474,249.535252 666.208483,343.840518 580.031147,460.95653 C493.853811,578.072541 297.747254,464.760626 194.717612,407.707538 C126.031183,369.672146 61.1253127,348.383139 0,343.840518 L0,0 L620,0 Z" id="Path" fill="url(#linearGradient-1)"></path>
                </g>
                <g id="4" transform="translate(877.024144, 175.416368)">
                    <path d="M57.7346218,101.944233 C65.9657182,115.659566 90.9758563,83.941218 90.9758563,47.2640252 C90.9758563,31.8483202 63.6446541,31.8483202 61.7401919,13.7688361 C61.2003728,8.64421379 53.3108498,4.56797344 50.2209169,2.49661316 C37.2081804,-6.22657497 12.7265277,9.68524202 10.4870356,22.8759917 C5.70644886,51.0339495 27.1846387,15.9252785 27.1846387,52.6024713 C27.1846387,89.2796641 49.5035255,88.2288993 57.7346218,101.944233 Z" id="Oval" fill="#FB833C"></path>
                    <path d="M54.8717028,98.1390489 C63.2872867,111.666458 82.8154925,87.5024448 82.8154925,51.3277937 C82.8154925,36.1233108 54.8717028,36.1233108 52.9245549,18.2915473 C50.0483249,-8.04864638 3.35602005,11.1746193 0.522636684,27.2739189 C-4.36509972,55.0460634 26.6389245,41.542984 26.6389245,77.7176352 C26.6389245,113.892286 46.4561189,84.6116397 54.8717028,98.1390489 Z" id="Oval" fill="url(#linearGradient-2)"></path>
                </g>
                <g id="2" transform="translate(860.000000, 228.000000)">
                    <path d="M7.19948613,520.185848 C-48.2892824,398.127464 236.961595,400.978158 180.897656,244.854455 C124.833717,88.7307517 375.312021,230.831549 433.66355,51.6486323 C492.015079,-127.534284 590.560548,200.868494 512.112049,406.176939 C433.66355,611.485385 294.892284,906.633748 236.921768,660.496367 C178.951252,414.358986 62.6882546,642.244231 7.19948613,520.185848 Z" id="Path-2" fill="#FB833C"></path>
                    <path d="M9.07324536,523.267774 C-17.732588,402.59893 252.843399,425.069469 197.251415,270.426666 C141.659431,115.783864 390.029171,256.536773 447.889488,79.0534844 C505.749805,-98.4298046 603.465702,231.222182 525.677595,430.218938 C447.889488,629.215693 261.36447,888.783035 246.654792,643.936617 C231.945113,399.0902 35.8790788,643.936617 9.07324536,523.267774 Z" id="Path-2" fill="url(#linearGradient-3)"></path>
                </g>
                <g id="8" transform="translate(230.000000, 594.000000)">
                    <circle id="Oval" fill="#FB833C" cx="40" cy="33" r="33"></circle>
                    <circle id="Oval" fill="url(#linearGradient-4)" cx="33" cy="33" r="33"></circle>
                </g>
                <g id="7" transform="translate(591.000000, 130.000000)">
                    <ellipse id="Oval" fill="#FB833C" cx="23.5" cy="22.5" rx="23.5" ry="22.5"></ellipse>
                    <ellipse id="Oval" fill="#F95E02" cx="28.5" cy="22.5" rx="23.5" ry="22.5"></ellipse>
                </g>
                <g id="5" transform="translate(928.000000, 851.000000)">
                    <circle id="Oval" fill="#FB833C" cx="43.5" cy="36.5" r="36.5"></circle>
                    <circle id="Oval" fill="url(#linearGradient-5)" cx="36.5" cy="36.5" r="36.5"></circle>
                </g>
                <g id="3" transform="translate(281.000000, 703.000000)">
                    <path d="M116.385751,68.1866383 C205.258856,35.6571495 238.66246,-15.3150801 277.620616,5.63036834 C316.578772,26.5758168 307.65467,106.504079 307.65467,147.070819 C307.65467,187.63756 330.458354,247.932733 233.443881,220.238556 C136.429408,192.544378 17.7398862,268.291267 3.65003199,234.662827 C-10.4398222,201.034386 24.7860769,179.396515 42.4056579,147.070819 C60.0252388,114.745123 27.5126446,100.716127 116.385751,68.1866383 Z" id="Path-3" fill="#FB833C"></path>
                    <path d="M74.6131123,59.103541 C175.392977,26.5751256 233.443047,-15.3143889 277.620616,5.63036834 C321.798184,26.5751256 291.507251,97.4197168 291.507251,137.985119 C291.507251,178.55052 317.424363,242.774411 207.412394,215.081147 C97.4004245,187.387883 19.6275719,268.290157 3.65003199,234.662827 C-12.327508,201.035496 28.1333212,191.483032 48.1134825,159.158403 C68.0936437,126.833774 -26.1667522,91.6319564 74.6131123,59.103541 Z" id="Path-3" fill="url(#linearGradient-6)"></path>
                </g>
            </g>
        </g>
    </g>
</svg>